<svg xmlns="http://www.w3.org/2000/svg" viewBox="0 0 480.3 1278.72"><defs><style>.cls-1,.cls-4{fill:#fb6778;}.cls-1{opacity:0.5;}.cls-2,.cls-6{fill:#4158d4;}.cls-3,.cls-5{fill:#fdcd43;}.cls-3,.cls-6{opacity:0.25;}</style></defs><g id="Camada_2" data-name="Camada 2"><g id="Layer_1" data-name="Layer 1"><polygon class="cls-1" points="160.25 959.08 160.25 799.29 320.05 799.29 160.25 959.08"/><polygon class="cls-2" points="479.84 1278.72 320.05 1278.72 320.05 1118.93 479.84 1278.72"/><rect class="cls-3" x="240.15" y="1118.93" width="79.9" height="159.79" transform="translate(560.19 2397.66) rotate(180)"/><rect class="cls-3" x="39.95" y="359.91" width="79.9" height="159.79" transform="translate(519.71 359.91) rotate(90)"/><circle class="cls-3" cx="80.57" cy="1199.04" r="79.68"/><rect class="cls-4" x="0.46" y="799.29" width="159.79" height="159.79" transform="translate(160.71 1758.37) rotate(180)"/><rect class="cls-2" x="320.05" y="799.29" width="159.79" height="319.64" transform="translate(799.88 1918.22) rotate(180)"/><path class="cls-3" d="M319.62,960.07H320a0,0,0,0,1,0,0v159.37a0,0,0,0,1,0,0H160.25a0,0,0,0,1,0,0v0A159.37,159.37,0,0,1,319.62,960.07Z" transform="translate(480.3 2079.5) rotate(180)"/><polygon class="cls-2" points="47.52 1118.93 113.62 1118.93 160.36 1072.19 160.36 1006.09 113.62 959.35 47.52 959.35 0.78 1006.09 0.78 1072.19 47.52 1118.93"/><polygon class="cls-1" points="320.5 479.7 480.3 479.7 480.3 639.5 320.5 479.7"/><polygon class="cls-2" points="160.25 319.96 320.05 319.96 320.05 479.76 160.25 319.96"/><rect class="cls-3" x="320.05" y="319.96" width="79.9" height="159.79"/><rect class="cls-4" x="399.94" y="319.96" width="79.9" height="159.79"/><rect class="cls-2" x="0.37" y="479.7" width="79.9" height="159.79"/><rect class="cls-4" x="80.27" y="479.7" width="79.9" height="159.79"/><circle class="cls-3" cx="400.16" cy="719.6" r="79.68"/><path class="cls-5" d="M159.85,160.75h.42a0,0,0,0,1,0,0V320.12a0,0,0,0,1,0,0H.48a0,0,0,0,1,0,0v0A159.37,159.37,0,0,1,159.85,160.75Z"/><polygon class="cls-1" points="160.33 320.11 160.33 160.32 320.12 160.32 160.33 320.11"/><circle class="cls-2" cx="399.96" cy="240.08" r="79.68"/><rect class="cls-2" x="160.26" y="639.5" width="159.79" height="159.79" transform="translate(480.31 1438.78) rotate(180)"/><rect class="cls-3" x="0.45" y="639.5" width="159.79" height="159.79" transform="translate(160.7 1438.78) rotate(180)"/><path class="cls-3" d="M320,479.7h.42a0,0,0,0,1,0,0V639.07a0,0,0,0,1,0,0H160.66a0,0,0,0,1,0,0v0A159.37,159.37,0,0,1,320,479.7Z" transform="translate(481.11 1118.78) rotate(180)"/><polygon class="cls-4" points="160.71 0 320.5 0 320.5 159.79 160.71 0"/><rect class="cls-5" x="320.5" width="159.79" height="159.79" transform="translate(480.3 -320.5) rotate(90)"/><path class="cls-6" d="M160.23,0h.42a0,0,0,0,1,0,0V159.37a0,0,0,0,1,0,0H.86a0,0,0,0,1,0,0v0A159.37,159.37,0,0,1,160.23,0Z" transform="translate(161.52 159.37) rotate(180)"/></g></g></svg>