<svg xmlns="http://www.w3.org/2000/svg" viewBox="0 0 1412.01 1397.97"><defs><style>.cls-1,.cls-2{fill:#fb6778;}.cls-1,.cls-9{opacity:0.5;}.cls-1,.cls-5,.cls-6,.cls-9{isolation:isolate;}.cls-3{fill:#fef2d0;}.cls-4,.cls-5{fill:#4158d4;}.cls-5,.cls-6{opacity:0.25;}.cls-6,.cls-7,.cls-9{fill:#fdcd43;}.cls-8{fill:#cfd5f4;}</style></defs><g id="Camada_2" data-name="Camada 2"><g id="Camada_1-2" data-name="Camada 1"><path class="cls-1" d="M564.88,558V837H282.44Z"/><path class="cls-1" d="M1271,836.63c77.79,0,140.85-62.29,140.85-139.11S1348.78,558.4,1271,558.4s-140.84,62.29-140.84,139.12S1193.21,836.63,1271,836.63Z"/><path class="cls-2" d="M847.32,558H564.88V837H847.32Z"/><path class="cls-3" d="M1129.44,0H847V279h282.44Z"/><path class="cls-4" d="M282.44,279H0V837H282.44Z"/><path class="cls-5" d="M564.13,278.08h.75V556.31H282.44A276.47,276.47,0,0,1,365,359.58a283.45,283.45,0,0,1,199.18-81.5Z"/><path class="cls-6" d="M1129,836.26V837H847.31V558.06a283.47,283.47,0,0,1,199.17,81.48A276.5,276.5,0,0,1,1129,836.26Z"/><path class="cls-7" d="M1412,278.22V279H1130.32V0A283.48,283.48,0,0,1,1329.5,81.49,276.49,276.49,0,0,1,1412,278.22Z"/><path class="cls-4" d="M764.14,279H647.3l-82.61,81.6V476l82.61,81.6H764.14L846.75,476V360.57Z"/><path class="cls-8" d="M1406,1119.44V837H848v282.44Z"/><path class="cls-9" d="M1123.44,1119v279H841Z"/><path class="cls-4" d="M1405.88,1119H1123.44v279h282.44Z"/></g></g></svg>